<svg width="13" height="24" viewBox="0 0 13 24" fill="none" xmlns="http://www.w3.org/2000/svg">
<path d="M12.4469 1.18873C12.3076 1.04904 12.1421 0.93821 11.9598 0.862591C11.7776 0.786971 11.5822 0.748047 11.3849 0.748047C11.1876 0.748047 10.9923 0.786971 10.81 0.862591C10.6278 0.93821 10.4623 1.04904 10.3229 1.18873L0.350933 11.1607C0.239689 11.2717 0.151432 11.4036 0.091214 11.5488C0.0309962 11.6939 0 11.8496 0 12.0067C0 12.1639 0.0309962 12.3195 0.091214 12.4647C0.151432 12.6098 0.239689 12.7417 0.350933 12.8527L10.3229 22.8247C10.9109 23.4127 11.8589 23.4127 12.4469 22.8247C13.0349 22.2367 13.0349 21.2887 12.4469 20.7007L3.75893 12.0007L12.4589 3.30073C13.0349 2.72473 13.0349 1.76473 12.4469 1.18873Z" fill="#848184"/>
</svg>
