<svg width="32" height="24" viewBox="0 0 32 24" fill="none" xmlns="http://www.w3.org/2000/svg">
<g clip-path="url(#clip0_4_1220)">
<path d="M1 10.0009C0.734784 10.0009 0.48043 9.89559 0.292893 9.70805C0.105357 9.52052 0 9.26616 0 9.00095V1.00293C0 0.737715 0.105357 0.48336 0.292893 0.295824C0.48043 0.108287 0.734784 0.00292969 1 0.00292969H9C9.26522 0.00292969 9.51957 0.108287 9.70711 0.295824C9.89464 0.48336 10 0.737715 10 1.00293V9.00095C10 9.26616 9.89464 9.52052 9.70711 9.70805C9.51957 9.89559 9.26522 10.0009 9 10.0009H1ZM15 10.0009C14.7348 10.0009 14.4804 9.89559 14.2929 9.70805C14.1054 9.52052 14 9.26616 14 9.00095V1.00293C14 0.737715 14.1054 0.48336 14.2929 0.295824C14.4804 0.108287 14.7348 0.00292969 15 0.00292969H22.998C23.2632 0.00292969 23.5176 0.108287 23.7051 0.295824C23.8926 0.48336 23.998 0.737715 23.998 1.00293V9.00095C23.998 9.26616 23.8926 9.52052 23.7051 9.70805C23.5176 9.89559 23.2632 10.0009 22.998 10.0009H15ZM1 24.001C0.734784 24.001 0.48043 23.8956 0.292893 23.7081C0.105357 23.5205 0 23.2662 0 23.001V15.001C0 14.7357 0.105357 14.4814 0.292893 14.2938C0.48043 14.1063 0.734784 14.001 1 14.001H9C9.26522 14.001 9.51957 14.1063 9.70711 14.2938C9.89464 14.4814 10 14.7357 10 15.001V23.001C10 23.2662 9.89464 23.5205 9.70711 23.7081C9.51957 23.8956 9.26522 24.001 9 24.001H1ZM15 24.001C14.7348 24.001 14.4804 23.8956 14.2929 23.7081C14.1054 23.5205 14 23.2662 14 23.001V15.001C14 14.7357 14.1054 14.4814 14.2929 14.2938C14.4804 14.1063 14.7348 14.001 15 14.001H22.998C23.2632 14.001 23.5176 14.1063 23.7051 14.2938C23.8926 14.4814 23.998 14.7357 23.998 15.001V23.001C23.998 23.2662 23.8926 23.5205 23.7051 23.7081C23.5176 23.8956 23.2632 24.001 22.998 24.001H15Z" fill="#848184"/>
</g>
<defs>
<clipPath id="clip0_4_1220">
<rect width="32" height="24" fill="white"/>
</clipPath>
</defs>
</svg>
