<svg width="24" height="24" viewBox="0 0 24 24" fill="none" xmlns="http://www.w3.org/2000/svg">
<path d="M3.75 23.8125C5.1975 23.8125 6.375 22.635 6.375 21.1875V17.8125C6.375 16.365 5.1975 15.1875 3.75 15.1875C2.3025 15.1875 1.125 16.365 1.125 17.8125V21.1875C1.125 22.635 2.3025 23.8125 3.75 23.8125ZM2.25 17.8125C2.25 16.9856 2.92313 16.3125 3.75 16.3125C4.57687 16.3125 5.25 16.9856 5.25 17.8125V21.1875C5.25 22.0144 4.57687 22.6875 3.75 22.6875C2.92313 22.6875 2.25 22.0144 2.25 21.1875V17.8125ZM22.875 21.1875V10.3125C22.875 8.865 21.6975 7.6875 20.25 7.6875C18.8025 7.6875 17.625 8.865 17.625 10.3125V21.1875C17.625 22.635 18.8025 23.8125 20.25 23.8125C21.6975 23.8125 22.875 22.635 22.875 21.1875ZM18.75 21.1875V10.3125C18.75 9.48563 19.4231 8.8125 20.25 8.8125C21.0769 8.8125 21.75 9.48563 21.75 10.3125V21.1875C21.75 22.0144 21.0769 22.6875 20.25 22.6875C19.4231 22.6875 18.75 22.0144 18.75 21.1875ZM14.625 21.1875V6.5625C14.625 5.115 13.4475 3.9375 12 3.9375C10.5525 3.9375 9.375 5.115 9.375 6.5625V21.1875C9.375 22.635 10.5525 23.8125 12 23.8125C13.4475 23.8125 14.625 22.635 14.625 21.1875ZM10.5 21.1875V6.5625C10.5 5.73563 11.1731 5.0625 12 5.0625C12.8269 5.0625 13.5 5.73563 13.5 6.5625V21.1875C13.5 22.0144 12.8269 22.6875 12 22.6875C11.1731 22.6875 10.5 22.0144 10.5 21.1875Z" fill="#848184"/>
</svg>
