<svg width="60" height="60" viewBox="0 0 60 60" fill="none" xmlns="http://www.w3.org/2000/svg">
<g filter="url(#filter0_d_15_46)">
<path d="M32.2737 8.91302C32.0921 8.91307 31.9146 8.96729 31.7639 9.06874C31.6132 9.17019 31.4963 9.31427 31.4279 9.48255C31.3596 9.65084 31.343 9.83568 31.3802 10.0135C31.4175 10.1912 31.5069 10.3539 31.6371 10.4805C35.5804 14.4238 35.5804 20.7679 31.6371 24.7112C31.5494 24.7953 31.4795 24.8961 31.4313 25.0076C31.3831 25.1191 31.3576 25.2391 31.3564 25.3606C31.3551 25.482 31.3782 25.6025 31.4241 25.715C31.47 25.8275 31.5379 25.9297 31.6238 26.0156C31.7097 26.1014 31.8119 26.1693 31.9243 26.2153C32.0368 26.2612 32.1573 26.2842 32.2788 26.283C32.4002 26.2817 32.5202 26.2563 32.6317 26.2081C32.7433 26.1599 32.844 26.0899 32.9282 26.0023C37.5675 21.363 37.5675 13.8287 32.9282 9.18943C32.8431 9.10197 32.7413 9.03245 32.6289 8.98497C32.5165 8.9375 32.3957 8.91303 32.2737 8.91302ZM29.7165 11.4685C29.5344 11.4682 29.3565 11.5222 29.2054 11.6238C29.0544 11.7253 28.9371 11.8697 28.8687 12.0383C28.8003 12.207 28.7838 12.3923 28.8214 12.5703C28.8591 12.7484 28.949 12.9112 29.0798 13.0378C31.5562 15.5142 31.5562 19.5866 29.0798 22.063C28.9922 22.1471 28.9222 22.2479 28.874 22.3594C28.8259 22.4709 28.8004 22.5909 28.7992 22.7124C28.7979 22.8339 28.8209 22.9544 28.8669 23.0668C28.9128 23.1793 28.9807 23.2815 29.0666 23.3674C29.1525 23.4533 29.2546 23.5211 29.3671 23.5671C29.4796 23.613 29.6001 23.636 29.7215 23.6348C29.843 23.6335 29.963 23.6081 30.0745 23.5599C30.186 23.5117 30.2868 23.4417 30.3709 23.3541C33.5554 20.1696 33.5554 14.9312 30.3709 11.7467C30.286 11.6589 30.1843 11.589 30.0719 11.5412C29.9595 11.4935 29.8386 11.4687 29.7165 11.4685ZM27.0683 14.1167C26.8868 14.1171 26.7095 14.1715 26.5592 14.2731C26.4088 14.3747 26.2921 14.5188 26.2239 14.687C26.1558 14.8552 26.1394 15.0399 26.1767 15.2175C26.214 15.3951 26.3034 15.5576 26.4334 15.6842C27.558 16.8088 27.558 18.4739 26.4334 19.5985C26.3458 19.6826 26.2758 19.7834 26.2276 19.8949C26.1795 20.0064 26.154 20.1264 26.1528 20.2479C26.1515 20.3694 26.1745 20.4899 26.2205 20.6023C26.2664 20.7148 26.3343 20.817 26.4202 20.9029C26.5061 20.9887 26.6082 21.0566 26.7207 21.1026C26.8332 21.1485 26.9537 21.1715 27.0751 21.1703C27.1966 21.169 27.3166 21.1436 27.4281 21.0954C27.5396 21.0472 27.6404 20.9772 27.7245 20.8896C29.5217 19.0925 29.5217 16.1902 27.7245 14.3931C27.6392 14.3054 27.5372 14.2357 27.4245 14.1883C27.3117 14.1408 27.1906 14.1164 27.0683 14.1167ZM16.3043 16.6828C15.7565 16.6828 15.3913 17.048 15.3913 17.5959V34.9437H17.2174V17.5959C17.2174 17.048 16.8522 16.6828 16.3043 16.6828ZM23.6087 16.6828C23.0609 16.6828 22.6957 17.048 22.6957 17.5959V34.9437H24.5217V17.5959C24.5217 17.048 24.1565 16.6828 23.6087 16.6828ZM13.5652 36.7698C12.013 36.7698 10.8261 37.9567 10.8261 39.5089V44.9872C10.8261 46.5393 12.013 47.7263 13.5652 47.7263H46.4348C47.987 47.7263 49.1739 46.5393 49.1739 44.9872V39.5089C49.1739 37.9567 47.987 36.7698 46.4348 36.7698H13.5652ZM16.3043 41.335C16.8522 41.335 17.2174 41.7002 17.2174 42.248C17.2174 42.7959 16.8522 43.1611 16.3043 43.1611C15.7565 43.1611 15.3913 42.7959 15.3913 42.248C15.3913 41.7002 15.7565 41.335 16.3043 41.335ZM19.9565 41.335C20.5043 41.335 20.8696 41.7002 20.8696 42.248C20.8696 42.7959 20.5043 43.1611 19.9565 43.1611C19.4087 43.1611 19.0435 42.7959 19.0435 42.248C19.0435 41.7002 19.4087 41.335 19.9565 41.335ZM23.6087 41.335C24.1565 41.335 24.5217 41.7002 24.5217 42.248C24.5217 42.7959 24.1565 43.1611 23.6087 43.1611C23.0609 43.1611 22.6957 42.7959 22.6957 42.248C22.6957 41.7002 23.0609 41.335 23.6087 41.335ZM27.2609 41.335C27.8087 41.335 28.1739 41.7002 28.1739 42.248C28.1739 42.7959 27.8087 43.1611 27.2609 43.1611C26.713 43.1611 26.3478 42.7959 26.3478 42.248C26.3478 41.7002 26.713 41.335 27.2609 41.335ZM30.913 41.335C31.4609 41.335 31.8261 41.7002 31.8261 42.248C31.8261 42.7959 31.4609 43.1611 30.913 43.1611C30.3652 43.1611 30 42.7959 30 42.248C30 41.7002 30.3652 41.335 30.913 41.335Z" fill="url(#paint0_linear_15_46)"/>
</g>
<defs>
<filter id="filter0_d_15_46" x="0.826088" y="0.913025" width="58.3478" height="58.8133" filterUnits="userSpaceOnUse" color-interpolation-filters="sRGB">
<feFlood flood-opacity="0" result="BackgroundImageFix"/>
<feColorMatrix in="SourceAlpha" type="matrix" values="0 0 0 0 0 0 0 0 0 0 0 0 0 0 0 0 0 0 127 0" result="hardAlpha"/>
<feOffset dy="2"/>
<feGaussianBlur stdDeviation="5"/>
<feComposite in2="hardAlpha" operator="out"/>
<feColorMatrix type="matrix" values="0 0 0 0 0 0 0 0 0 0 0 0 0 0 0 0 0 0 0.25 0"/>
<feBlend mode="normal" in2="BackgroundImageFix" result="effect1_dropShadow_15_46"/>
<feBlend mode="normal" in="SourceGraphic" in2="effect1_dropShadow_15_46" result="shape"/>
</filter>
<linearGradient id="paint0_linear_15_46" x1="30" y1="8.91302" x2="30" y2="47.7263" gradientUnits="userSpaceOnUse">
<stop stop-color="#27D71C"/>
<stop offset="1" stop-color="#ABE605"/>
</linearGradient>
</defs>
</svg>
