<svg width="24" height="24" viewBox="0 0 24 24" fill="none" xmlns="http://www.w3.org/2000/svg">
<g clip-path="url(#clip0_15_164)">
<path d="M1.2 3.60004H6M22.8 3.60004H10.8M1.2 12H15.6M22.8 12H20.4M1.2 20.4H3.6M22.8 20.4H8.4" stroke="#848184" stroke-width="2" stroke-linecap="round"/>
<path d="M8.4 6.00001C9.72548 6.00001 10.8 4.9255 10.8 3.60001C10.8 2.27453 9.72548 1.20001 8.4 1.20001C7.07452 1.20001 6 2.27453 6 3.60001C6 4.9255 7.07452 6.00001 8.4 6.00001Z" stroke="#848184" stroke-width="2" stroke-linecap="round"/>
<path d="M18 14.4C19.3255 14.4 20.4 13.3255 20.4 12C20.4 10.6746 19.3255 9.60004 18 9.60004C16.6745 9.60004 15.6 10.6746 15.6 12C15.6 13.3255 16.6745 14.4 18 14.4Z" stroke="#848184" stroke-width="2" stroke-linecap="round"/>
<path d="M6 22.8C7.32548 22.8 8.4 21.7255 8.4 20.4C8.4 19.0745 7.32548 18 6 18C4.67451 18 3.6 19.0745 3.6 20.4C3.6 21.7255 4.67451 22.8 6 22.8Z" stroke="#848184" stroke-width="2" stroke-linecap="round"/>
</g>
<defs>
<clipPath id="clip0_15_164">
<rect width="24" height="24" fill="white"/>
</clipPath>
</defs>
</svg>
